<?xml version="1.0" encoding="UTF-8"?><svg id="Layer_1" xmlns="http://www.w3.org/2000/svg" viewBox="0 0 397.05 120.55"><defs><style>.cls-1{fill:#010101;}.cls-2{fill:#1e1e1c;}</style></defs><rect class="cls-1" y=".09" width="117.09" height="20.13"/><rect class="cls-1" y="29.36" width="38.42" height="20.13"/><rect class="cls-1" x="78.67" y="29.36" width="38.42" height="20.13"/><rect class="cls-1" y="58.63" width="117.09" height="20.13"/><rect class="cls-1" y="87.91" width="80.5" height="20.13"/><g><path class="cls-2" d="M155.13,0h20.15c2.4,0,4.61,.59,6.64,1.77s3.63,2.78,4.81,4.81c1.18,2.03,1.77,4.24,1.77,6.64s-.59,4.61-1.77,6.64c-1.18,2.03-2.78,3.64-4.81,4.84-2.03,1.2-4.24,1.8-6.64,1.8h-13.71v20.03h-6.45V0Zm20.15,20.03c1.86,0,3.46-.66,4.81-1.98,1.34-1.32,2.02-2.94,2.02-4.84s-.67-3.46-2.02-4.81c-1.34-1.34-2.95-2.02-4.81-2.02h-13.71v13.64h13.71Z"/><path class="cls-2" d="M209.89,20.71c-1.28-1.28-2.89-1.92-4.84-1.92h-3.35c-1.24,0-2.37,.3-3.38,.9-1.01,.6-1.81,1.42-2.39,2.45l-5.33-3.53c1.2-1.94,2.77-3.46,4.71-4.56,1.94-1.09,4.07-1.64,6.39-1.64h3.35c2.4,0,4.6,.59,6.6,1.77,2,1.18,3.6,2.77,4.77,4.78,1.18,2.01,1.77,4.21,1.77,6.6v20.96h-6.39v-2.67c-.83,.83-1.83,1.48-3.01,1.95-1.18,.48-2.43,.71-3.75,.71h-4.4c-1.82,0-3.49-.45-5.02-1.36-1.53-.91-2.75-2.13-3.66-3.66-.91-1.53-1.36-3.2-1.36-5.02s.46-3.5,1.36-5.05c.91-1.55,2.13-2.77,3.66-3.66,1.53-.89,3.2-1.33,5.02-1.33h11.16v-.87c0-1.94-.64-3.56-1.92-4.84Zm-11.75,18.51c.76,.77,1.68,1.15,2.76,1.15h4.59c1.82,0,3.33-.61,4.53-1.83,1.2-1.22,1.8-2.74,1.8-4.56v-1.43h-10.91c-1.08,0-2,.38-2.76,1.15s-1.15,1.69-1.15,2.76,.38,2,1.15,2.76Z"/><path class="cls-2" d="M224.96,12.4h6.39v2.85c1.82-1.9,4.16-2.85,7.01-2.85h5.83v6.14h-5.83c-2.03,0-3.7,.66-5.02,1.98-1.32,1.32-1.98,3-1.98,5.02v20.96h-6.39V12.4Z"/><path class="cls-2" d="M255.72,44.09c-1.61-1.61-2.42-3.62-2.42-6.02V18.54h-6.2v-6.14h6.2V0h6.45V12.4h7.13v6.14h-7.13v18.6c0,.83,.28,1.53,.84,2.11,.56,.58,1.25,.87,2.08,.87h4.22v6.39h-5.15c-2.4,0-4.4-.81-6.02-2.42Z"/><path class="cls-2" d="M295.97,6.39h-11.97V0h30.39V6.39h-11.97V46.51h-6.45V6.39Z"/><path class="cls-2" d="M311.97,12.4h6.7l8.62,26.23,8.62-26.23h6.76l8.62,26.29,8.62-26.29h6.7l-11.1,34.11h-8.37l-7.81-23.75-7.81,23.75h-8.37l-11.16-34.11Z"/><path class="cls-2" d="M376.25,44.65c-2.13-1.24-3.81-2.92-5.05-5.05-1.24-2.13-1.86-4.43-1.86-6.92v-6.45c0-2.48,.62-4.78,1.86-6.91,1.24-2.13,2.92-3.81,5.05-5.05,2.13-1.24,4.43-1.86,6.92-1.86s4.84,.62,6.95,1.86,3.79,2.93,5.05,5.05c1.26,2.13,1.89,4.43,1.89,6.91v6.45c0,2.48-.63,4.79-1.89,6.92-1.26,2.13-2.95,3.81-5.05,5.05s-4.42,1.86-6.95,1.86-4.79-.62-6.92-1.86Zm1.67-6.73c1.47,1.47,3.21,2.2,5.24,2.2s3.82-.72,5.27-2.17c1.45-1.45,2.17-3.2,2.17-5.27v-6.45c0-2.07-.72-3.82-2.17-5.27-1.45-1.45-3.2-2.17-5.27-2.17s-3.77,.72-5.24,2.17c-1.47,1.45-2.2,3.2-2.2,5.27v6.45c0,2.03,.73,3.77,2.2,5.24Z"/><path class="cls-2" d="M155.13,61.64h16.74c2.98,0,5.76,.75,8.34,2.26,2.58,1.51,4.63,3.55,6.14,6.11,1.51,2.56,2.26,5.35,2.26,8.37v13.02c0,3.02-.75,5.81-2.26,8.37-1.51,2.56-3.56,4.6-6.14,6.11-2.58,1.51-5.36,2.26-8.34,2.26h-16.74V61.64Zm16.74,40.12c1.86,0,3.58-.46,5.15-1.4,1.57-.93,2.82-2.19,3.75-3.78,.93-1.59,1.39-3.32,1.39-5.18v-13.02c0-1.86-.46-3.59-1.39-5.18-.93-1.59-2.18-2.85-3.75-3.78-1.57-.93-3.29-1.4-5.15-1.4h-10.29v33.74h10.29Z"/><path class="cls-2" d="M194.95,61.64h6.45v7.44h-6.45v-7.44Zm0,12.4h6.45v34.11h-6.45v-34.11Z"/><path class="cls-2" d="M212.59,118.72c-1.88-1.22-3.3-2.84-4.25-4.87l5.89-2.6c.45,.87,1.08,1.57,1.89,2.11,.81,.54,1.71,.81,2.7,.81h4.78c1.41,0,2.61-.52,3.63-1.55,1.01-1.03,1.52-2.25,1.52-3.66v-3.91c-.99,.99-2.13,1.76-3.41,2.29-1.28,.54-2.63,.81-4.03,.81-2.48,0-4.79-.62-6.92-1.86-2.13-1.24-3.81-2.92-5.05-5.05-1.24-2.13-1.86-4.43-1.86-6.92v-6.45c0-2.48,.62-4.78,1.86-6.91,1.24-2.13,2.92-3.81,5.05-5.05,2.13-1.24,4.43-1.86,6.92-1.86,1.4,0,2.75,.27,4.03,.81,1.28,.54,2.42,1.3,3.41,2.29v-3.1h6.45v34.91c0,2.11-.53,4.05-1.58,5.83-1.05,1.78-2.47,3.18-4.25,4.22-1.78,1.03-3.7,1.55-5.77,1.55h-4.78c-2.27,0-4.35-.61-6.23-1.83Zm3.47-19.16c1.47,1.47,3.21,2.2,5.24,2.2s3.82-.72,5.27-2.17c1.45-1.45,2.17-3.2,2.17-5.27v-6.45c0-2.07-.72-3.82-2.17-5.27-1.45-1.45-3.2-2.17-5.27-2.17s-3.77,.72-5.24,2.17c-1.47,1.45-2.2,3.2-2.2,5.27v6.45c0,2.03,.73,3.77,2.2,5.24Z"/><path class="cls-2" d="M242.39,61.64h6.45v7.44h-6.45v-7.44Zm0,12.4h6.45v34.11h-6.45v-34.11Z"/><path class="cls-2" d="M262.05,105.73c-1.61-1.61-2.42-3.62-2.42-6.02v-19.53h-6.2v-6.14h6.2v-12.4h6.45v12.4h7.13v6.14h-7.13v18.6c0,.83,.28,1.53,.84,2.11,.56,.58,1.25,.87,2.08,.87h4.22v6.39h-5.15c-2.4,0-4.4-.81-6.02-2.42Z"/><path class="cls-2" d="M296.65,82.35c-1.28-1.28-2.89-1.92-4.84-1.92h-3.35c-1.24,0-2.37,.3-3.38,.9-1.01,.6-1.81,1.42-2.39,2.45l-5.33-3.53c1.2-1.94,2.77-3.46,4.71-4.56,1.94-1.09,4.07-1.64,6.39-1.64h3.35c2.4,0,4.6,.59,6.6,1.77,2,1.18,3.6,2.77,4.77,4.78,1.18,2.01,1.77,4.21,1.77,6.6v20.96h-6.39v-2.67c-.83,.83-1.83,1.48-3.01,1.95-1.18,.48-2.43,.71-3.75,.71h-4.4c-1.82,0-3.49-.45-5.02-1.36-1.53-.91-2.75-2.13-3.66-3.66-.91-1.53-1.36-3.2-1.36-5.02s.46-3.5,1.36-5.05c.91-1.55,2.13-2.77,3.66-3.66,1.53-.89,3.2-1.33,5.02-1.33h11.16v-.87c0-1.94-.64-3.56-1.92-4.84Zm-11.75,18.51c.76,.77,1.68,1.15,2.76,1.15h4.59c1.82,0,3.33-.61,4.53-1.83,1.2-1.22,1.8-2.74,1.8-4.56v-1.43h-10.91c-1.08,0-2,.38-2.76,1.15s-1.15,1.69-1.15,2.76,.38,2,1.15,2.76Z"/><path class="cls-2" d="M313.89,105.73c-1.61-1.61-2.42-3.62-2.42-6.02V61.64h6.39v37.15c0,.83,.29,1.53,.87,2.11,.58,.58,1.28,.87,2.11,.87h2.92v6.39h-3.84c-2.4,0-4.4-.81-6.02-2.42Z"/></g><text/></svg>